<?xml version="1.0" encoding="UTF-8"?>
<svg width="91px" height="24px" viewBox="0 0 91 24" version="1.1" xmlns="http://www.w3.org/2000/svg" xmlns:xlink="http://www.w3.org/1999/xlink">
    <title>Group 18</title>
    <defs>
        <polygon id="path-1" points="0.000390430622 0.0820833333 17.8362373 0.0820833333 17.8362373 4.940325 0.000390430622 4.940325"></polygon>
    </defs>
    <g id="Page-1" stroke="none" stroke-width="1" fill="none" fill-rule="evenodd">
        <g id="Desktop" transform="translate(-467.000000, -199.000000)">
            <g id="Group-18" transform="translate(467.000000, 199.000000)">
                <path d="M15.7451978,14.2104904 C15.7451978,16.4757409 14.6015433,18.4091267 12.345756,19.9528455 C11.0504022,20.8408078 9.71860121,21.3690008 8.99655229,21.6161553 C7.29338368,21.0401259 2.25578723,18.9333333 2.25578723,14.2104904 L2.25480217,9.92116444 C2.96404531,10.141411 3.7166311,10.2729609 4.63273682,10.2729609 C6.56443934,10.2729609 7.79871942,9.67899292 9.10589394,9.05114083 C10.5293055,8.36548649 12.0029552,7.65790716 14.3257265,7.65790716 C14.8379576,7.65790716 15.3068462,7.69278783 15.7451978,7.75357986 L15.7451978,14.2104904 Z M14.3257265,5 C12.0029552,5 10.5293055,5.70957252 9.10589394,6.39323367 C7.79871942,7.02208235 6.56443934,7.61704694 4.63273682,7.61704694 C3.14037104,7.61704694 2.07847644,7.27123 0.942702348,6.75300288 C0.693482187,6.63939156 0.446232146,6.52079727 0.193071745,6.39921322 C0.13002791,6.36831891 0.0630438352,6.33842119 0,6.30752688 L0.000985059924,14.2104904 C0.000985059924,21.7098348 9.00049253,24 9.00049253,24 C9.00049253,24 18,21.7098348 18,14.2104904 L18,5.69163388 C16.9893285,5.296984 15.8377935,5 14.3257265,5 L14.3257265,5 Z" id="Fill-1" fill="#FEFEFE"></path>
                <g id="Group-5">
                    <mask id="mask-2" fill="white">
                        <use xlink:href="#path-1"></use>
                    </mask>
                    <g id="Clip-4"></g>
                    <path d="M15.6019981,0.171825 C15.1637397,0.114991667 14.695223,0.0819916667 14.1827828,0.0819916667 C11.8811943,0.0819916667 10.4229359,0.733741667 9.01055311,1.36349167 C7.7162756,1.94190833 6.49325167,2.48824167 4.57818947,2.48824167 C3.66848612,2.48824167 2.9159311,2.36174167 2.23462967,2.16649167 C1.50159617,1.95749167 0.851529187,1.66874167 0.183892823,1.370825 C0.123376077,1.343325 0.0618832536,1.315825 0.000390430622,1.288325 L0.00136650718,3.741325 L0.183892823,3.82290833 C0.851529187,4.12174167 1.50257225,4.41049167 2.23560574,4.62040833 C2.9159311,4.813825 3.66848612,4.940325 4.57818947,4.940325 C6.49325167,4.940325 7.7162756,4.39399167 9.01055311,3.81649167 C10.4229359,3.185825 11.8811943,2.53499167 14.1827828,2.53499167 C14.695223,2.53499167 15.1637397,2.56890833 15.6019981,2.624825 C16.4492325,2.73390833 17.1734813,2.93374167 17.8362373,3.174825 L17.8362373,0.721825 C17.1734813,0.481658333 16.4492325,0.280908333 15.6019981,0.171825" id="Fill-3" fill="#FEFEFE" mask="url(#mask-2)"></path>
                </g>
                <path d="M27.6692668,18.9299233 L33.6973479,18.9299233 L33.6973479,9.04866744 L32.0811232,9.04866744 L27.6692668,18.9299233 Z M26.8393136,7 L36.2080988,7 L35.9906396,9.04866744 L35.9906396,18.9299233 L38,18.9299233 L36.8205928,24 L34.549142,24 L35.226209,20.9804668 L26.2714509,20.9804668 L26.2714509,24 L24,24 L24,18.9299233 L25.4414977,18.9299233 L29.7223089,9.04866744 L26.8393136,9.04866744 L26.8393136,7 Z" id="Fill-6" fill="#FEFEFE"></path>
                <polygon id="Fill-8" fill="#FEFEFE" points="41 9.32038835 42.965757 9.32038835 42.965757 13.5281553 47.0334129 13.5281553 47.0334129 9.32038835 49 9 49 20 47.0334129 20 47.0334129 15.4504854 42.965757 15.4504854 42.965757 20 41 20"></polygon>
                <path d="M52.8226431,5 L55,5.27503526 L54.5454154,7.62433311 L52.5454154,7.94076164 L52.8226431,5 Z M52.4464055,11.3046544 L51,11.3046544 L51,9.63328632 L52.4464055,9.42172073 L54.4860095,9.01974612 L54.4860095,20 L52.4464055,20 L52.4464055,11.3046544 Z" id="Fill-10" fill="#FEFEFE"></path>
                <polygon id="Fill-12" fill="#FEFEFE" points="58 9.32038835 63.9853301 9.32038835 66 9 66 20 63.9853301 20 63.9853301 11.2213592 60.0146699 11.2213592 60.0146699 20 58 20"></polygon>
                <path d="M72.1451434,11.7518797 L72.1451434,19.037594 C75.1454454,19.0150376 76.8539507,17.0526316 76.8539507,14.4586466 C76.8539507,12.1804511 75.4371414,11.0977444 73.9378963,11.0977444 C73.3119275,11.0977444 72.6243583,11.3909774 72.1451434,11.7518797 L72.1451434,11.7518797 Z M70,9.33834586 L70.5417212,9.33834586 L71.4575742,9.83458647 C72.2284852,9.29323308 73.2077504,9 74.0828384,9 C77.0414696,9 79,11.075188 79,14.4586466 C79,18.2706767 76.0622043,21.156914 72.1451434,21.1804511 L72.1451434,24 L70,24 L70,9.33834586 Z" id="Fill-14" fill="#FEFEFE"></path>
                <path d="M85.611336,11.0888889 C83.3623482,11.0888889 82.2935223,12.6888889 82.2935223,15.2222222 C82.2935223,17.1323671 83.2955466,18.9111111 85.388664,18.9111111 C87.6376518,18.9111111 88.7064777,17.3111111 88.7064777,14.7777778 C88.7064777,12.8666667 87.7044534,11.0888889 85.611336,11.0888889 M85.611336,9 C89.1518219,9 91,11.7111111 91,14.6 C91,18.1333333 88.9736842,21 85.388664,21 C81.8481781,21 80,18.2888889 80,15.4 C80,11.8666667 82.0263158,9 85.611336,9" id="Fill-16" fill="#FEFEFE"></path>
            </g>
        </g>
    </g>
</svg>